<svg width="32" height="32" viewBox="0 0 32 32" fill="none" xmlns="http://www.w3.org/2000/svg">
<path fill-rule="evenodd" clip-rule="evenodd" d="M6.54131 2C6.96622 2 7.33508 2.26751 7.46119 2.64949L7.49398 2.78085L8.43172 8.22982H27.1453C27.6878 8.22982 28.1142 8.65898 28.1113 9.16779L28.1014 9.29645L26.8136 18.0182L26.7687 18.196C26.0838 20.0803 24.242 21.3261 22.2447 21.3198L21.9943 21.3124L13.0347 21.3109C10.9737 21.424 9.07682 20.2582 8.29724 18.4282L8.20568 18.196L8.16413 18.0397L6.70614 9.57546L6.68159 9.52803C6.64901 9.4535 6.62614 9.37403 6.61451 9.2911L6.6057 9.16429C6.6057 9.12128 6.6087 9.07896 6.61451 9.03749L5.7223 3.86895H3.96581C3.47686 3.86895 3.07277 3.51739 3.00882 3.06128L3 2.93447C3 2.46139 3.36334 2.07041 3.83476 2.00853L3.96581 2H6.54131ZM26.0314 10.0988H8.75366L10.0517 17.6357L10.1112 17.7795C10.5652 18.7742 11.5786 19.4261 12.7449 19.4477L12.9801 19.4436L22.049 19.4451C23.2614 19.5116 24.3791 18.8406 24.8632 17.7795L24.9162 17.6469L26.0314 10.0988ZM8.15097 25.9069C8.15097 24.0145 9.73647 22.4805 11.6923 22.4805C13.6481 22.4805 15.2336 24.0145 15.2336 25.9069C15.2336 27.7992 13.6481 29.3333 11.6923 29.3333C9.73647 29.3333 8.15097 27.7992 8.15097 25.9069ZM13.3019 25.9068C13.3019 25.0466 12.5812 24.3493 11.6922 24.3493C10.8032 24.3493 10.0825 25.0466 10.0825 25.9068C10.0825 26.767 10.8032 27.4643 11.6922 27.4643C12.5812 27.4643 13.3019 26.767 13.3019 25.9068ZM18.453 25.9069C18.453 24.0145 20.0385 22.4805 21.9943 22.4805C23.9501 22.4805 25.5356 24.0145 25.5356 25.9069C25.5356 27.7992 23.9501 29.3333 21.9943 29.3333C20.0385 29.3333 18.453 27.7992 18.453 25.9069ZM23.604 25.9068C23.604 25.0466 22.8833 24.3493 21.9943 24.3493C21.1053 24.3493 20.3846 25.0466 20.3846 25.9068C20.3846 26.767 21.1053 27.4643 21.9943 27.4643C22.8833 27.4643 23.604 26.767 23.604 25.9068Z" fill="#212121"/>
</svg>
